<svg width="34" height="34" viewBox="0 0 34 34" fill="none" xmlns="http://www.w3.org/2000/svg">
<g id="icon/file/download_24px">
<path id="icon/file/download_24px_2" fill-rule="evenodd" clip-rule="evenodd" d="M21.25 13.4584H23.5025C24.7633 13.4584 25.3867 14.9884 24.4942 15.8809L17.9917 22.3834C17.4392 22.9359 16.5467 22.9359 15.9942 22.3834L9.49168 15.8809C8.59918 14.9884 9.23668 13.4584 10.4975 13.4584H12.75V6.37504C12.75 5.59587 13.3875 4.95837 14.1667 4.95837H19.8333C20.6125 4.95837 21.25 5.59587 21.25 6.37504V13.4584ZM8.50001 29.0417C7.72084 29.0417 7.08334 28.4042 7.08334 27.6251C7.08334 26.8459 7.72084 26.2084 8.50001 26.2084H25.5C26.2792 26.2084 26.9167 26.8459 26.9167 27.6251C26.9167 28.4042 26.2792 29.0417 25.5 29.0417H8.50001Z" fill="white"/>
</g>
</svg>
