<svg width="37" height="36" viewBox="0 0 37 36" fill="none" xmlns="http://www.w3.org/2000/svg">
<path fill-rule="evenodd" clip-rule="evenodd" d="M21.5833 4.5C21.5833 3.67157 22.2736 3 23.125 3H32.375C33.2264 3 33.9167 3.67157 33.9167 4.5V13.5C33.9167 14.3284 33.2264 15 32.375 15C31.5236 15 30.8333 14.3284 30.8333 13.5V6H23.125C22.2736 6 21.5833 5.32843 21.5833 4.5Z" fill="white"/>
<path fill-rule="evenodd" clip-rule="evenodd" d="M4.62499 21C5.47643 21 6.16666 21.6716 6.16666 22.5V30H13.875C14.7264 30 15.4167 30.6716 15.4167 31.5C15.4167 32.3284 14.7264 33 13.875 33H4.62499C3.77356 33 3.08333 32.3284 3.08333 31.5V22.5C3.08333 21.6716 3.77356 21 4.62499 21Z" fill="white"/>
<path fill-rule="evenodd" clip-rule="evenodd" d="M33.4651 3.43934C34.0672 4.02513 34.0672 4.97487 33.4651 5.56066L22.6735 16.0607C22.0714 16.6464 21.0953 16.6464 20.4932 16.0607C19.8912 15.4749 19.8912 14.5251 20.4932 13.9393L31.2849 3.43934C31.8869 2.85355 32.8631 2.85355 33.4651 3.43934Z" fill="white"/>
<path fill-rule="evenodd" clip-rule="evenodd" d="M16.5068 19.9393C17.1088 20.5251 17.1088 21.4749 16.5068 22.0607L5.71512 32.5607C5.11306 33.1464 4.13693 33.1464 3.53487 32.5607C2.93281 31.9749 2.93281 31.0251 3.53487 30.4393L14.3265 19.9393C14.9286 19.3536 15.9047 19.3536 16.5068 19.9393Z" fill="white"/>
</svg>
