<svg width="215" height="58" viewBox="0 0 215 58" fill="none" xmlns="http://www.w3.org/2000/svg">
<g filter="url(#filter0_d)">
<rect x="4.02539" y="4" width="206.249" height="49.6166" rx="8" fill="#219653"/>
<rect x="4.52539" y="4.5" width="205.249" height="48.6166" rx="7.5" stroke="#219653"/>
</g>
<path fill-rule="evenodd" clip-rule="evenodd" d="M44.2499 25.4584H46.5024C47.7633 25.4584 48.3866 26.9884 47.4941 27.8809L40.9916 34.3834C40.4391 34.9359 39.5466 34.9359 38.9941 34.3834L32.4916 27.8809C31.5991 26.9884 32.2366 25.4584 33.4974 25.4584H35.7499V18.375C35.7499 17.5959 36.3874 16.9584 37.1666 16.9584H42.8333C43.6124 16.9584 44.2499 17.5959 44.2499 18.375V25.4584ZM31.4999 41.0417C30.7208 41.0417 30.0833 40.4042 30.0833 39.625C30.0833 38.8459 30.7208 38.2084 31.4999 38.2084H48.4999C49.2791 38.2084 49.9166 38.8459 49.9166 39.625C49.9166 40.4042 49.2791 41.0417 48.4999 41.0417H31.4999Z" fill="white"/>
<path d="M75.1914 20.9082C77.2812 20.9082 78.9121 21.5267 80.084 22.7637C81.2559 24.0072 81.8418 25.7357 81.8418 27.9492C81.8418 30.1693 81.2559 31.901 80.084 33.1445C78.9186 34.3815 77.2878 35 75.1914 35H70.3574V20.9082H75.1914ZM72.1152 33.418H75.0742C76.6693 33.418 77.8965 32.946 78.7559 32.002C79.6152 31.0645 80.0449 29.7201 80.0449 27.9688C80.0449 26.2044 79.6185 24.8503 78.7656 23.9062C77.9062 22.9622 76.6758 22.4902 75.0742 22.4902H72.1152V33.418ZM88.1504 35.0977C86.6725 35.0977 85.4941 34.6126 84.6152 33.6426C83.7363 32.6725 83.2969 31.3704 83.2969 29.7363C83.2969 28.1022 83.7363 26.8001 84.6152 25.8301C85.4941 24.86 86.6725 24.375 88.1504 24.375C89.6283 24.375 90.8066 24.86 91.6855 25.8301C92.5645 26.8001 93.0039 28.1022 93.0039 29.7363C93.0039 31.3704 92.5645 32.6725 91.6855 33.6426C90.8066 34.6126 89.6283 35.0977 88.1504 35.0977ZM88.1504 33.584C89.1335 33.584 89.8984 33.2454 90.4453 32.5684C90.9987 31.8848 91.2754 30.9408 91.2754 29.7363C91.2754 28.5254 90.9987 27.5814 90.4453 26.9043C89.8984 26.2272 89.1335 25.8887 88.1504 25.8887C87.1673 25.8887 86.4023 26.2272 85.8555 26.9043C85.3021 27.5879 85.0254 28.5319 85.0254 29.7363C85.0254 30.9408 85.3021 31.8848 85.8555 32.5684C86.4089 33.2454 87.1738 33.584 88.1504 33.584ZM105.162 35H103.443L101.041 26.8164H101.002L98.5996 35H96.8809L93.9316 24.4727H95.6113L97.75 33.0762H97.7891L100.201 24.4727H101.842L104.254 33.0762H104.293L106.432 24.4727H108.111L105.162 35ZM109.557 24.4727H111.158V26.1816H111.197C111.868 24.9772 113.014 24.375 114.635 24.375C115.794 24.375 116.708 24.7233 117.379 25.4199C118.049 26.11 118.385 27.054 118.385 28.252V35H116.686V28.5449C116.686 27.6855 116.467 27.028 116.031 26.5723C115.589 26.1165 114.954 25.8887 114.127 25.8887C113.261 25.8887 112.568 26.1621 112.047 26.709C111.52 27.2559 111.256 27.9818 111.256 28.8867V35H109.557V24.4727ZM120.748 20.293H122.447V35H120.748V20.293ZM129.186 35.0977C127.708 35.0977 126.529 34.6126 125.65 33.6426C124.771 32.6725 124.332 31.3704 124.332 29.7363C124.332 28.1022 124.771 26.8001 125.65 25.8301C126.529 24.86 127.708 24.375 129.186 24.375C130.663 24.375 131.842 24.86 132.721 25.8301C133.6 26.8001 134.039 28.1022 134.039 29.7363C134.039 31.3704 133.6 32.6725 132.721 33.6426C131.842 34.6126 130.663 35.0977 129.186 35.0977ZM129.186 33.584C130.169 33.584 130.934 33.2454 131.48 32.5684C132.034 31.8848 132.311 30.9408 132.311 29.7363C132.311 28.5254 132.034 27.5814 131.48 26.9043C130.934 26.2272 130.169 25.8887 129.186 25.8887C128.202 25.8887 127.438 26.2272 126.891 26.9043C126.337 27.5879 126.061 28.5319 126.061 29.7363C126.061 30.9408 126.337 31.8848 126.891 32.5684C127.444 33.2454 128.209 33.584 129.186 33.584ZM139.264 33.623C140.123 33.623 140.836 33.3757 141.402 32.8809C141.962 32.3796 142.242 31.7513 142.242 30.9961V30.1465L139.488 30.3223C137.887 30.4199 137.086 30.9831 137.086 32.0117C137.086 32.5 137.285 32.8906 137.682 33.1836C138.072 33.4766 138.6 33.623 139.264 33.623ZM138.902 35.0977C137.835 35.0977 136.975 34.8145 136.324 34.248C135.673 33.6816 135.348 32.9329 135.348 32.002C135.348 31.097 135.686 30.3874 136.363 29.873C137.04 29.3522 138.017 29.0527 139.293 28.9746L142.242 28.7988V27.9199C142.242 27.2689 142.034 26.7676 141.617 26.416C141.201 26.0645 140.605 25.8887 139.83 25.8887C139.218 25.8887 138.704 26.0352 138.287 26.3281C137.864 26.6211 137.6 27.015 137.496 27.5098H135.865C135.891 26.6243 136.285 25.8789 137.047 25.2734C137.809 24.6745 138.743 24.375 139.85 24.375C141.093 24.375 142.086 24.681 142.828 25.293C143.57 25.9115 143.941 26.7383 143.941 27.7734V35H142.33V33.1738H142.291C141.992 33.7598 141.536 34.2253 140.924 34.5703C140.312 34.9219 139.638 35.0977 138.902 35.0977ZM146.197 24.4727H147.799V26.1816H147.838C148.508 24.9772 149.654 24.375 151.275 24.375C152.434 24.375 153.349 24.7233 154.02 25.4199C154.69 26.11 155.025 27.054 155.025 28.252V35H153.326V28.5449C153.326 27.6855 153.108 27.028 152.672 26.5723C152.229 26.1165 151.594 25.8887 150.768 25.8887C149.902 25.8887 149.208 26.1621 148.688 26.709C148.16 27.2559 147.896 27.9818 147.896 28.8867V35H146.197V24.4727ZM161.285 35.0977C159.957 35.0977 158.873 34.6061 158.033 33.623C157.193 32.6335 156.773 31.3379 156.773 29.7363C156.773 28.1413 157.193 26.8457 158.033 25.8496C158.86 24.8665 159.931 24.375 161.246 24.375C162.815 24.375 163.935 24.9772 164.605 26.1816H164.645V20.293H166.344V35H164.723V33.2227H164.693C163.99 34.4727 162.854 35.0977 161.285 35.0977ZM161.588 25.8887C160.663 25.8887 159.921 26.2402 159.361 26.9434C158.795 27.6465 158.512 28.5775 158.512 29.7363C158.512 30.9017 158.795 31.8359 159.361 32.5391C159.921 33.2357 160.663 33.584 161.588 33.584C162.499 33.584 163.238 33.2292 163.805 32.5195C164.371 31.8099 164.654 30.8822 164.654 29.7363C164.654 28.5905 164.371 27.6628 163.805 26.9531C163.238 26.2435 162.499 25.8887 161.588 25.8887Z" fill="#F2F2F2"/>
<defs>
<filter id="filter0_d" x="0.0253906" y="1.90735e-06" width="214.249" height="57.6166" filterUnits="userSpaceOnUse" color-interpolation-filters="sRGB">
<feFlood flood-opacity="0" result="BackgroundImageFix"/>
<feColorMatrix in="SourceAlpha" type="matrix" values="0 0 0 0 0 0 0 0 0 0 0 0 0 0 0 0 0 0 127 0"/>
<feOffset/>
<feGaussianBlur stdDeviation="2"/>
<feColorMatrix type="matrix" values="0 0 0 0 0 0 0 0 0 0 0 0 0 0 0 0 0 0 0.25 0"/>
<feBlend mode="normal" in2="BackgroundImageFix" result="effect1_dropShadow"/>
<feBlend mode="normal" in="SourceGraphic" in2="effect1_dropShadow" result="shape"/>
</filter>
</defs>
</svg>
